<?xml version="1.0" standalone="no"?><!DOCTYPE svg PUBLIC "-//W3C//DTD SVG 1.1//EN" "http://www.w3.org/Graphics/SVG/1.1/DTD/svg11.dtd"><svg t="1528853399371" class="icon" style="" viewBox="0 0 1024 1024" version="1.1" xmlns="http://www.w3.org/2000/svg" p-id="1257" xmlns:xlink="http://www.w3.org/1999/xlink" width="200" height="200"><defs><style type="text/css"></style></defs><path d="M189.44 248.32a321.536 155.648 0 1 0 643.072 0 321.536 155.648 0 1 0-643.072 0Z" fill="" p-id="1258"></path><path d="M189.44 388.096V487.424c308.224 183.296 642.56 0 642.56 0v-99.328c-357.888 158.208-642.56 0-642.56 0z" fill="" p-id="1259"></path><path d="M189.44 556.544v99.328c308.224 183.296 642.56 0 642.56 0V556.544c-357.888 158.208-642.56 0-642.56 0z" fill="" p-id="1260"></path><path d="M189.44 719.872V819.2c308.224 183.296 642.56 0 642.56 0V719.872c-357.888 158.208-642.56 0-642.56 0z" fill="" p-id="1261"></path></svg>